<svg xmlns="http://www.w3.org/2000/svg" width="346" height="153" viewBox="0 0 346 153"><path fill="#C4A35A" fill-rule="evenodd" d="M44.62 8.96L47.06 8.87L48.42 10.75L48.50 22.75L48.81 24.06L49.75 24.44L56.19 19.37L64.12 14.12L72.12 10.12L79.75 8.58L83.25 9.50L86.25 9.58L89.88 11.12L92.94 13.12L96.63 17.19L97.88 19.12L100.42 26.75L100.58 30.25L101.50 33.25L101.50 38.75L102.50 42.25L102.50 46.75L103.50 50.25L103.50 55.75L104.50 59.25L104.50 63.75L105.50 67.25L105.50 72.75L106.50 76.25L106.50 81.75L107.50 85.25L107.50 89.75L108.50 94.75L110.13 96.87L115.21 98.37L115.81 99.25L115.56 100.13L114.75 100.50L69.25 100.50L68.44 100.13L68.19 99.25L69.12 98.12L73.25 97.42L74.81 96.62L76.12 95.06L76.42 93.75L75.50 90.75L75.50 84.25L74.50 80.75L74.50 74.25L73.50 70.75L73.50 64.25L72.50 60.75L72.50 54.25L71.50 50.75L71.50 44.25L70.50 40.75L70.42 34.75L67.87 27.13L65.94 25.13L62.75 23.50L58.75 23.58L55.13 25.13L49.88 28.63L48.50 31.25L48.50 94.75L50.13 96.87L55.21 98.37L55.81 99.25L55.56 100.13L54.75 100.50L11.25 100.50L9.81 100.04L9.62 98.81L10.12 98.19L15.44 96.81L16.87 94.87L17.50 92.75L17.50 24.25L17.12 22.94L16.06 21.88L10.81 21.38L9.62 19.81L11.25 18.42L16.75 16.58L44.62 8.96Z M154.62 8.96L157.75 8.50L160.75 9.42L165.75 9.50L170.25 10.58L178.88 14.12L184.13 17.62L188.63 22.19L193.13 28.94L196.42 37.75L198.25 44.50L199.04 44.37L202.87 32.94L208.37 24.19L215.19 17.37L224.12 12.12L231.75 9.58L236.75 9.50L239.75 8.58L242.75 8.50L245.75 9.42L249.75 9.50L251.88 10.12L256.06 11.87L261.94 16.12L262.75 16.17L286.75 9.58L289.75 9.50L290.81 10.06L291.50 11.25L291.50 140.75L291.96 142.19L293.75 143.67L298.81 145.06L299.38 145.81L298.94 146.81L297.75 147.50L253.25 147.50L252.19 146.94L251.62 146.19L252.19 145.06L258.19 143.37L259.87 141.87L260.50 139.75L260.19 93.94L258.88 93.63L252.25 98.67L247.88 100.88L241.75 102.50L229.25 102.50L220.12 99.88L210.87 94.38L205.37 87.81L201.12 79.88L197.75 68.50L196.96 68.63L196.58 69.75L196.42 72.25L194.88 77.88L191.67 84.25L187.63 89.81L181.81 94.63L172.88 99.88L162.75 102.50L148.25 102.50L138.12 99.88L131.75 96.67L126.87 93.38L120.62 87.13L115.87 80.06L112.58 71.25L111.50 66.75L111.42 61.75L110.50 58.75L110.50 55.25L111.50 51.75L111.50 46.25L112.58 41.75L116.33 31.75L121.62 23.87L127.19 18.37L131.75 15.33L138.12 12.12L146.75 9.58L152.75 9.50L154.62 8.96Z M149.81 12.96L154.75 12.50L156.87 13.13L160.62 17.19L162.87 21.13L165.42 29.75L165.58 33.25L166.50 36.25L166.50 46.75L165.19 48.37L142.25 48.50L140.42 46.75L140.50 32.25L142.58 22.75L145.38 17.19L149.81 12.96Z M242.63 14.96L248.75 14.17L254.87 15.13L259.37 18.88L260.50 21.25L260.42 86.25L259.37 88.12L254.81 92.62L252.87 93.87L247.75 95.50L243.75 95.42L240.13 93.87L237.88 92.37L235.33 89.25L232.58 83.25L230.58 75.25L230.50 71.25L229.50 67.75L229.50 43.25L230.50 39.75L230.58 35.75L233.13 26.13L235.33 21.75L239.88 16.63L242.63 14.96Z M195.63 51.96L197.06 51.63L197.44 52.75L197.44 62.25L197.06 63.19L194.62 64.81L194.42 68.25L192.67 73.25L185.81 80.62L181.87 82.87L176.75 84.50L169.25 84.83L163.75 84.42L156.94 82.12L153.19 79.62L147.63 74.12L144.88 70.06L141.58 61.25L140.50 55.75L140.63 53.81L142.25 52.50L193.75 52.50L195.63 51.96Z"></path><g transform="translate(282 45) scale(0.844)"><path fill="#C4A35A" d="M40 24 C55 24 62 38 58 55 C53 80 36 98 12 118 C28 96 36 82 33 68 C19 71 9 57 13 42 C17 29 28 22 40 24 Z"></path></g></svg>